<?xml version="1.0" encoding="utf-8"?>
<!-- Generator: Adobe Illustrator 28.2.0, SVG Export Plug-In . SVG Version: 6.00 Build 0)  -->
<svg version="1.1" xmlns="http://www.w3.org/2000/svg" xmlns:xlink="http://www.w3.org/1999/xlink" x="0px" y="0px"
	 viewBox="0 0 420.3 78.5" style="enable-background:new 0 0 420.3 78.5;" xml:space="preserve">
<style type="text/css">
	.st0{fill:none;stroke:#FF0000;stroke-width:0.1;stroke-miterlimit:10;}
	.st1{fill:none;stroke:#FF0000;stroke-width:0.1012;stroke-miterlimit:10;}
	.st2{fill:none;stroke:#FF0000;stroke-width:9.997012e-02;stroke-miterlimit:10;}
	.st3{fill:#231F20;}
</style>
<g id="cut">
	<polygon class="st0" points="78.8,26.4 78.8,20.5 70.3,20.5 70.3,11.9 22.1,11.9 22.1,20.5 13.7,20.5 13.7,26.4 22.1,26.4 
		22.1,57.1 13.7,57.1 13.7,63 22.1,63 22.1,68.6 70.3,68.6 70.3,63 78.8,63 78.8,57.1 70.3,57.1 70.3,26.4 	"/>
	<polygon class="st0" points="143.4,63.1 143.4,57.4 151.8,57.4 151.8,26.2 143.4,26.2 143.4,20.6 151.8,20.6 151.8,12.1 86.6,12.1 
		86.6,20.6 95,20.6 95,26.2 86.6,26.2 86.6,57.4 95,57.4 95,63.1 86.6,63.1 86.6,68.7 151.8,68.7 151.8,63.1 	"/>
	<polygon class="st0" points="223.9,26.4 223.9,20.5 215.5,20.5 215.5,11.9 167.3,11.9 167.3,20.5 158.8,20.5 158.8,26.4 
		167.3,26.4 167.3,57.1 158.8,57.1 158.8,63 167.3,63 167.3,68.6 215.5,68.6 215.5,63 223.9,63 223.9,57.1 215.5,57.1 215.5,26.4 	
		"/>
	<polygon class="st0" points="288.5,63.1 288.5,57.4 296.9,57.4 296.9,26.2 288.5,26.2 288.5,20.6 296.9,20.6 296.9,12.1 
		231.7,12.1 231.7,20.6 240.1,20.6 240.1,26.2 231.7,26.2 231.7,57.4 240.1,57.4 240.1,63.1 231.7,63.1 231.7,68.7 296.9,68.7 
		296.9,63.1 	"/>
	<rect x="303" y="15" class="st1" width="48.8" height="48.8"/>
	<rect x="357.5" y="16.4" class="st0" width="47.3" height="47.3"/>
	<rect x="3.2" y="3" class="st2" width="414.2" height="72"/>
</g>
<g id="eng">
	<g>
		<path d="M129,47.4c-0.5,0-1,0-1.4,0c-0.1,0-0.4-0.1-0.4-0.2c0-0.1,0.1-0.3,0.2-0.5c0.1-0.2,0.3-0.4,0.3-0.5c0-0.5,0-1,0-1.5
			c0-0.3,0.2-0.7-0.4-0.8c-0.1,0-0.1-0.4-0.2-0.8c1.1,0.1,2.1,0.1,3.1,0.3c0.8,0.2,1,1.3,0.5,2c-0.6,0.9-0.6,0.9,0.2,1.4
			c-0.7,0.9-0.8,0.9-1.3,0c-0.1-0.2-0.2-0.3-0.4-0.5c-0.1-0.1-0.3-0.1-0.4-0.1c0,0.2,0,0.3,0,0.5C128.8,46.8,128.9,47,129,47.4
			 M128.7,45.2c0.5-0.2,0.9-0.3,1.2-0.4c0.1,0,0.1-0.5,0-0.5c-0.3-0.1-0.7-0.2-1.1-0.3C128.8,44.3,128.7,44.6,128.7,45.2"/>
		<path d="M126.9,43.2c-0.1,0.2-0.2,0.5-0.3,0.8c-0.1,0.5-0.1,1-0.2,1.5c0,1.5-0.9,2.2-2.4,2c-0.9-0.2-1.2-0.8-1.2-2
			c0-0.5,0.3-1.1-0.3-1.5c0,0,0.1-0.5,0.2-0.6c0.5-0.1,1-0.1,1.5-0.1c0,0,0.1,0.5,0.1,0.6c-0.5,0.6-0.3,1.3-0.3,1.9
			c0,0.4,0.2,0.8,0.8,0.8c0.5,0,0.7-0.5,0.7-0.9c-0.1-0.6,0.4-1.3-0.3-1.8c0,0,0.2-0.6,0.4-0.7c0.4-0.2,0.8-0.2,1.3-0.2
			C126.8,43,126.8,43.1,126.9,43.2"/>
		<path d="M109.2,44.6c-0.6,0.1-1,0.2-1.4-0.3c-0.4-0.5-1.2-0.5-1.7-0.1c-0.5,0.5-0.6,1.3-0.2,1.7c0.5,0.5,1.3,0.6,1.8,0.2
			c0.6-0.5,0.6-0.5,1.3-0.4c-0.2,1.2-2,1.9-3,1.5c-1.2-0.4-1.7-2.1-1.2-3c0.6-1.2,2-1.6,3.1-0.9c0.4-0.1,0.7-0.2,1.2-0.3
			C109.2,43.6,109.2,44.1,109.2,44.6"/>
		<path d="M111.7,43.1c-0.2,0.3-0.3,0.6-0.4,0.8c-0.1,0.8-0.1,1.6,0,2.3c0,0.1,0.5,0.3,0.8,0.2c0.2-0.1,0.5-0.3,0.5-0.6
			c0.1-0.5,0.1-1,0-1.6c0-0.1-0.1-0.2-0.1-0.4c-0.1-0.2-0.2-0.4-0.4-0.8c0.8,0,1.3,0,2.1,0c-0.2,0.4-0.4,0.6-0.4,0.8
			c-0.1,0.3-0.1,0.7-0.1,1c-0.1,0.6,0,1.2-0.3,1.7c-0.3,0.7-1.1,1-2,0.8c-0.8-0.2-1.2-0.8-1.2-1.6c0-0.4,0-0.7,0-1.1
			c0-0.3,0.2-0.7-0.3-0.8c-0.2-0.1,0-0.7,0.3-0.7C110.6,43.1,111.1,43.1,111.7,43.1"/>
		<path d="M134.3,43.2c-0.2,0.3-0.4,0.7-0.7,0.8c-0.6,0.2-0.4,0.5-0.3,0.9c0.2,0,0.4,0,0.8,0.1c0,0.3,0,0.5,0,0.9
			c-0.2,0-0.4-0.1-0.6-0.1c-0.1,0-0.3,0.2-0.3,0.3c0,0.1,0.1,0.4,0.2,0.4c0.4,0,0.9,0.3,1.1-0.3c0.1-0.2,0.5-0.2,1-0.4
			c0,0.7-0.1,1.2-0.1,1.7c-1.1,0-2.2,0-3.2,0c-0.2,0-0.4-0.3-0.5-0.4c0.1-0.1,0.3-0.2,0.4-0.4c0.1-0.1,0.2-0.3,0.2-0.4
			c0-0.6,0-1.3,0-1.9c0-0.1-0.1-0.3-0.2-0.4c-0.1-0.1-0.3-0.3-0.2-0.4c0.1-0.2,0.3-0.4,0.4-0.4c0.7,0,1.4,0,2.1,0
			C134.2,43.1,134.2,43.1,134.3,43.2"/>
		<path d="M118.5,44.6c-0.1-0.1-0.6-0.2-0.6-0.4c0-0.4-0.1-1.1,0.6-1.1c1.1-0.1,2.1-0.1,3.2,0c0.6,0,0.4,0.5,0.4,0.8
			c0,0.2-0.1,0.6-0.3,0.7c-0.3,0.1-0.6,0.1-0.7-0.3c0-0.1-0.2-0.2-0.3-0.2c-0.1,0.1-0.2,0.3-0.2,0.4c0,0.7,0,1.4,0,2.1
			c0,0.2-0.1,0.6-0.3,0.7c-0.3,0.1-0.7,0.1-1.1,0.1c0-0.2-0.1-0.7,0-0.7c0.5-0.2,0.4-0.6,0.4-0.9c0-0.3,0-0.7,0-1
			c0-0.2-0.2-0.4-0.4-0.6C119,44.1,118.8,44.3,118.5,44.6"/>
		<path d="M116.6,43c0,0.2,0,0.4,0,0.4c-0.7,0.5-0.6,1.3-0.5,2c0,1-0.4,1.3-1.5,1.8c0-0.2,0-0.4,0.1-0.5c0.9-0.7,0.3-1.7,0.4-2.6
			c0-0.1-0.2-0.2-0.3-0.3c-0.1-0.2-0.2-0.3-0.2-0.5c0-0.1,0.2-0.3,0.4-0.3C115.4,43,115.9,43,116.6,43"/>
		<path d="M115.4,47.3c0.3-0.7,0.7-1,1.3-0.9c0.2,0,0.4-0.2,0.6-0.3c0.2-0.1,0.5-0.2,0.7-0.3c0.1,0,0.2,0.3,0.2,0.5
			c0.1,0.7-0.3,1-1,1C116.7,47.3,116.1,47.3,115.4,47.3"/>
		<path d="M135.5,43.1c0.1,1.3,0.1,1.4-1.2,1.3c0.4-0.5,0.7-1,1-1.4C135.3,43,135.4,43.1,135.5,43.1"/>
		<path d="M126.4,49.7c-0.2,0.5-0.3,1-0.6,1.4c-0.3,0.5-0.6,1-1,1.4c-0.3,0.3-0.7,0-0.9-0.6c-0.2-0.6-0.3-1.3-0.5-1.9
			c-0.1-0.3-0.4-0.6-0.6-0.8c-0.1-0.1-0.1-0.3-0.1-0.5c0-0.1,0.2-0.2,0.3-0.3c0.4-0.1,0.9-0.1,1.3-0.1c0.4,0,0.5,0.3,0.3,0.7
			c-0.4,0.7-0.3,1.4,0.2,2.2c0.2-0.4,0.2-0.8,0.4-1.1c0.3-0.5,0.7-1.1,1.1-1.5c0.4-0.4,0.6-0.3,0.8,0.2c0.2,0.8,0.4,1.6,0.7,2.4
			c0.6-0.8,0.7-1.9,0.3-2.2c0.4-1,1.2-0.6,2-0.6c0,0.2,0,0.3-0.1,0.4c-0.9,0.9-0.8,2.1-1.4,3.1c-0.2,0.3-0.5,0.6-0.8,0.7
			c-0.1,0-0.5-0.3-0.6-0.6c-0.3-0.7-0.5-1.5-0.8-2.2C126.5,49.7,126.5,49.7,126.4,49.7"/>
		<path d="M117.9,48.3c0,0.5,0,1,0,1.5c-0.4-0.1-0.8,0.3-0.9-0.4c0-0.1-0.2-0.2-0.3-0.1c-0.1,0-0.3,0.1-0.3,0.2c0,0.7-0.1,1.4-0.1,2
			c0,0.1,0.1,0.2,0.1,0.2c0.1,0.2,0.3,0.4,0.3,0.5c-0.1,0.2-0.3,0.3-0.5,0.3c-0.4,0-0.9,0-1.2,0c0.1-0.9,0.2-1.6,0.3-2.4
			c0-0.2,0-0.4,0-0.5c0-0.1-0.2-0.3-0.3-0.3c-0.1,0-0.2,0.1-0.3,0.2c-0.2,0.1-0.5,0.3-0.8,0.4c-0.1-0.2-0.2-0.5-0.2-0.7
			c-0.1-0.7,0.3-0.9,0.9-0.9C115.7,48.3,116.8,48.3,117.9,48.3"/>
		<path d="M118.9,51.5c-0.1-0.7,0.4-1.7-0.4-2.7c0.6-1,1.6-0.4,2.4-0.4c-0.2,0.3-0.5,0.5-0.7,0.8c-0.1,0.2-0.2,0.4-0.2,0.6
			c0,0.1,0.2,0.3,0.3,0.3c0.3,0,0.6,0,0.6,0.4c0,0.4-0.3,0.4-0.6,0.4c-0.1,0-0.2,0-0.5,0.1c0.2,0.3,0.4,0.6,0.6,0.6
			c0.4,0,1.1,0.3,1-0.8c0.4,0.2,0.8,0.3,0.9,0.5c0.2,0.5-0.3,1.1-0.8,1.1c-0.9,0-1.8,0-2.7,0c-0.1,0-0.4-0.3-0.4-0.3
			C118.5,52.1,118.7,51.9,118.9,51.5"/>
		<path d="M110.4,52.2c0.3-0.1,0.7-0.2,1-0.4c0.2-0.1,0.4-0.2,0.5-0.3c-0.1-0.2-0.2-0.4-0.4-0.6c-0.2-0.1-0.5-0.2-0.7-0.3
			c-0.5-0.2-0.9-0.5-0.9-1.2c0-0.7,0.5-1.1,1.1-1.2c0.5-0.1,1.1,0.1,1.6,0.3c0.2,0.1,0.2,0.6,0.2,0.9c-0.1,0.2-0.4,0.3-0.7,0.5
			c-0.1-0.3-0.1-0.6-0.2-0.7c-0.1-0.1-0.4-0.1-0.6-0.1c-0.1,0-0.2,0.2-0.2,0.3c0,0.2,0.1,0.4,0.3,0.4c0.2,0.1,0.5,0.2,0.8,0.3
			c0.6,0.3,1,0.6,0.9,1.4c-0.1,0.7-0.6,0.9-1.2,1c-0.4,0.1-0.9,0-1.3-0.1C110.5,52.4,110.5,52.3,110.4,52.2"/>
		<path d="M122.1,48.4c0.3,1.1,0.1,1.4-0.7,1.4C121.1,49.1,121.6,48.8,122.1,48.4"/>
		<path d="M127.6,33.3c0-0.9,0.1-1.7,0.1-2.6c0-0.2,0-0.4,0.1-0.6c0.1-0.1,0.2-0.3,0.3-0.3c0.3,0,0.6,0.1,0.9,0.1c0,1.1,0,2.2,0,3.3
			c0,0,0.1,0,0.1,0c0.1-0.5,0.2-0.9,0.3-1.4c0.2,0,0.4,0.1,0.7,0.1c0-0.4,0-0.7-0.1-1.1c0.4,0,0.8,0,1.2,0c-0.1-0.2-0.1-0.4-0.2-0.6
			c0.3-0.1,0.6-0.3,0.9-0.3c0.2,0,0.5,0.3,0.6,0.5c0.2,0.4,0.4,0.6,0.8,0.5c0.2,0,0.3,0,0.5,0c0,0.3,0,0.6,0,0.8
			c0,0.1-0.2,0.3-0.4,0.3c-0.8,0-1.6,0-2.4,0c-0.2,0-0.6-0.2-0.6,0.4c1,0,2,0.1,3,0.1c0,0.5,0,0.9,0,1.4c0.3-0.2,0.5-0.6,0.7-1.9
			c0.1-0.7,0.2-1.4,0.4-2.2c0.4,0,0.9,0.1,1.3,0.1c-0.1,0.7-0.2,1.2-0.3,2c0.7,0,1.3,0,1.9,0.1c0,0.3,0.1,0.7,0.1,1.2
			c-0.4,0-0.4,0.3-0.5,0.6c-0.2,1.1-0.4,2.2-0.7,3.2c-0.2,0.8-0.1,1.4,0.4,2c0.2,0.2,0.4,0.5,0.5,0.8c-0.3,0.3-0.7,0.5-1,0.8
			c-0.3-0.3-0.5-0.6-0.7-0.9c-0.2-0.4-0.4-0.3-0.7-0.1c-0.3,0.3-0.7,0.6-1,0.9c-0.2,0.2-0.3,0.1-0.5,0c-0.2-0.2-0.4-0.4-0.6-0.6
			c0.1-0.1,0.3-0.2,0.4-0.3c0.5-0.5,1-1,1.4-1.6c0.2-0.3,0-0.8-0.1-1.3c-0.1-0.3-0.1-0.7-0.5-0.8c0,0-0.1,0-0.1-0.1
			c-0.4-0.8-1-0.8-1.8-0.7c-0.5,0-1,0-1.5,0c-0.3,0-0.4-0.1-0.4-0.4c0-0.5,0-0.9,0-1.4c0,0-0.1,0-0.1,0c-0.2,0.6-0.4,1.1-0.6,1.7
			c-0.2-0.1-0.4-0.1-0.6-0.2c-0.4,1.3,0,2.3,0.8,3.2c0.1,0,0.1,0,0.2,0c0-0.1-0.1-0.1-0.1-0.2c0-0.1,0-0.1,0-0.2
			c0.8-0.3,1.3-0.6,1.7-1.2c-0.6,0-1.1,0-1.6,0.1c0-0.3,0-0.5,0-0.7c0-0.4,0.2-0.5,0.5-0.5c0.8,0,1.5,0,2.3,0c0.3,0,0.6,0.3,0.8,0.5
			c0,0-0.1,0.3-0.2,0.3c-0.3,0.3-0.6,0.5-0.9,0.9c0.4,0,0.7,0,1.1-0.1c0,0.3,0,0.7,0,1c-0.2,0-0.4,0.1-0.6,0.1
			c-0.6,0.1-0.7,0.2-0.7,0.8c0.1,1.3-0.3,1.7-1.6,1.6c-0.3,0-0.4-0.1-0.4-0.4c0-0.2-0.1-0.5-0.2-0.7c0.3-0.1,0.7-0.1,0.9-0.3
			c0.1-0.1,0.1-0.5,0.1-0.8c-0.8,0.1-1.5,0.1-1.9,0.9c-0.3-0.5-0.5-0.8-0.8-1.3c-0.3,0.9-0.7,1.7-1.3,2.3c-0.3-0.3-0.6-0.6-1-0.9
			c1.1-1.4,1.5-3,1.4-4.7 M135.3,35.4c0,0,0.1,0,0.1,0c0-0.1,0.1-0.2,0.1-0.3c0.1-0.5,0.2-0.9,0.2-1.4c0-0.2,0.1-0.4-0.2-0.5
			c-0.4-0.1-0.5,0.2-0.5,0.5C135.2,34.3,135.3,34.8,135.3,35.4 M131.5,33.4c0,0.3-0.3,0.7,0.2,0.8c0.3,0.1,0.6,0.1,0.7-0.4
			C132.3,33,131.8,33.5,131.5,33.4"/>
		<path d="M107.9,38.5c-1.1,0.8-2.3,1.5-3.6,1.9c-0.3,0.1-0.6,0.2-0.8,0.2c-0.1,0-0.3-0.1-0.3-0.1c-0.2-0.4-0.4-0.7-0.6-1.2
			c0.2-0.1,0.5-0.2,0.8-0.3c0.7-0.3,1.4-0.5,2.1-0.8c0.3-0.1,0.6-0.3,0.9-0.5c0.5-0.3,0.6-0.6,0.2-1c-0.9-0.9-1.4-2.1-1.8-3.3
			c-0.1-0.3-0.2-0.5-0.6-0.4c-0.4,0.1-0.6-0.2-0.8-0.5c-0.1,0.1-0.1,0.1-0.3,0.2c0.1,0.1,0.2,0.1,0.3,0.2c0,0,0,0.1,0,0.1
			c-0.2,0-0.5,0-0.7,0c0-0.4,0-0.9,0-1.4c0-0.1,0.1-0.2,0.2-0.2c0.1,0,0.2,0.1,0.3,0.2c0.1-0.1,0.3-0.2,0.4-0.2c0.5,0.2,1,0,1.5,0
			c0.8,0.1,1.6,0,2.6,0c-0.1-0.4-0.2-0.8-0.4-1.1c-0.1-0.3-0.1-0.5,0.2-0.5c0.4-0.1,0.9-0.2,1.3-0.4c0.3,0.6,0.5,1.1,0.8,1.7
			c-0.4,0.1-0.7,0.2-1,0.3c0.6,0.4,1.2,0.2,1.8,0.2c0.6,0,1.3,0,1.9,0c-0.1,0.1-0.2,0.2-0.3,0.4c0,0,0.1,0.1,0.1,0.1
			c0.4-0.5,0.9-0.6,1.7-0.4c0,0.4,0,0.9,0,1.4c-0.1,0-0.2,0-0.2,0c-0.4,0-0.9,0.1-1.3,0.1c-0.3,0-0.5,0.2-0.6,0.5
			c-0.5,1.4-1.2,2.6-2.3,3.7c0.2,0.1,0.4,0.2,0.6,0.4c1,0.6,2.1,1,3.2,1.2c0.5,0.1,0.5,0.2,0.2,0.6c-0.2,0.2-0.3,0.5-0.5,0.7
			c-0.3,0.4-0.6,0.5-1,0.3c-0.8-0.3-1.6-0.7-2.3-1C108.9,39.3,108.4,38.9,107.9,38.5 M105.4,34.5c0,0,0.1,0,0.1,0
			c0.3-0.3,0.6-0.5,0.9-0.8c0.4,1,1.1,2.1,1.7,2.4c0.6-0.5,1.7-2.3,1.8-3c-0.3,0-0.5-0.1-0.8-0.1c-0.9,0-1.8,0-2.7,0
			c-0.2,0-0.2,0.1-0.2,0.3c0,0.2,0.1,0.5-0.3,0.6C105.6,34,105.5,34.3,105.4,34.5"/>
		<path d="M121.4,29.9c0,1.2,0,2.5-0.1,3.8c1-0.4,1.8-1.1,2.7-1.7c0.3,0.4,0.7,0.8,1,1.2c0,0.1,0,0.3-0.1,0.4c-1,0.6-2,1.1-3,1.7
			c-0.5,0.2-0.7,0.5-0.7,1c0,0.7,0,1.5,0,2.2c0,0.4,0.1,0.6,0.6,0.6c0.5,0,1,0,1.5,0c0.3,0,0.5-0.2,0.6-0.5c0.1-0.4,0.1-0.8,0.2-1.3
			c0.5,0.2,0.9,0.4,1.4,0.6c0.1,0,0.1,0.2,0.1,0.3c-0.1,0.8-0.2,1.6-0.9,2.2c-0.5,0.5-1.2,0.4-1.8,0.5c-0.7,0-1.3,0-2-0.1
			c-0.9-0.1-1.4-0.6-1.4-1.5c0-1.3,0-2.7,0.1-4c0-1.6,0.1-3.2,0.1-4.8c0-0.4,0.2-0.5,0.5-0.5C120.6,30,120.9,29.9,121.4,29.9"/>
		<path d="M118.9,30.4c-0.3,0.6-0.7,1.2-1,1.8c-0.1,0.3-0.3,0.5-0.3,0.8c0,1.2,0,2.3-0.1,3.5c0,1.2-0.1,2.5-0.1,3.7
			c0,0.4-0.1,0.7-0.6,0.6c-0.2,0-0.3,0-0.5,0c-0.7,0.1-0.7,0.1-0.7-0.7c0.1-1.5,0.1-3,0.2-4.5c0-0.1,0-0.3,0-0.5
			c-0.2,0.2-0.3,0.3-0.5,0.4c-0.4,0.3-0.5,0.3-0.7-0.1c-0.1-0.2-0.2-0.4-0.3-0.6c-0.2-0.3-0.2-0.4,0-0.8c0.4-0.8,1.2-1.2,1.6-2
			c0.2-0.5,0.6-1,0.9-1.4c0.6-0.8,0.8-0.9,1.7-0.4C118.6,30.3,118.7,30.3,118.9,30.4"/>
		<path d="M127.2,34.6c-0.3,0-0.7,0.1-1,0.2c0-1,0-2,0-3c0-0.1,0.1-0.3,0.3-0.3c0.2-0.1,0.5-0.1,0.7-0.2
			C127.1,33.7,127.2,34.6,127.2,34.6"/>
	</g>
	<g>
		<path d="M180.4,44.5v-0.9l2.4-2.6c0.3-0.3,0.5-0.5,0.6-0.7s0.2-0.4,0.3-0.6c0.1-0.2,0.1-0.3,0.1-0.5c0-0.3-0.1-0.6-0.3-0.8
			c-0.2-0.2-0.4-0.3-0.8-0.3c-0.4,0-0.6,0.1-0.8,0.3c-0.2,0.2-0.3,0.6-0.3,1h-1.4l0,0c0-0.4,0.1-0.8,0.3-1.2
			c0.2-0.4,0.5-0.6,0.9-0.9c0.4-0.2,0.8-0.3,1.4-0.3c0.5,0,0.9,0.1,1.3,0.3c0.4,0.2,0.6,0.4,0.8,0.8c0.2,0.3,0.3,0.7,0.3,1.1
			c0,0.3-0.1,0.6-0.2,0.8c-0.1,0.3-0.3,0.5-0.5,0.8c-0.2,0.3-0.5,0.6-0.8,1l-1.6,1.7l0,0h2.1l0.1-0.7h1.1v1.8H180.4z"/>
		<path d="M188.9,44.6c-0.8,0-1.4-0.3-1.8-0.8c-0.4-0.5-0.7-1.3-0.7-2.2v-1.7c0-1,0.2-1.7,0.7-2.2s1.1-0.8,1.8-0.8
			c0.8,0,1.4,0.3,1.8,0.8s0.7,1.3,0.7,2.2v1.7c0,1-0.2,1.7-0.7,2.2C190.2,44.3,189.6,44.6,188.9,44.6z M188.9,43.5
			c0.4,0,0.6-0.1,0.8-0.4s0.3-0.7,0.3-1.3v-2c0-0.6-0.1-1.1-0.3-1.3c-0.2-0.3-0.5-0.4-0.8-0.4c-0.4,0-0.6,0.1-0.8,0.4
			c-0.2,0.3-0.3,0.7-0.3,1.3v2c0,0.6,0.1,1.1,0.3,1.3S188.5,43.5,188.9,43.5z"/>
		<path d="M192.3,44.5v-0.9l2.4-2.6c0.3-0.3,0.5-0.5,0.6-0.7s0.2-0.4,0.3-0.6c0.1-0.2,0.1-0.3,0.1-0.5c0-0.3-0.1-0.6-0.3-0.8
			c-0.2-0.2-0.4-0.3-0.8-0.3c-0.4,0-0.6,0.1-0.8,0.3c-0.2,0.2-0.3,0.6-0.3,1h-1.4l0,0c0-0.4,0.1-0.8,0.3-1.2
			c0.2-0.4,0.5-0.6,0.9-0.9c0.4-0.2,0.8-0.3,1.4-0.3c0.5,0,0.9,0.1,1.3,0.3c0.4,0.2,0.6,0.4,0.8,0.8c0.2,0.3,0.3,0.7,0.3,1.1
			c0,0.3-0.1,0.6-0.2,0.8c-0.1,0.3-0.3,0.5-0.5,0.8c-0.2,0.3-0.5,0.6-0.8,1l-1.6,1.7l0,0h2.1l0.1-0.7h1.1v1.8H192.3z"/>
		<path d="M200.3,44.5v-0.8l0.8-0.2v-0.8H198l-0.1-0.7l3.1-5h1.4v4.7h0.9v1h-0.9v0.8l0.8,0.2v0.8H200.3z M199.2,41.8h1.8v-2.9l0,0
			l-0.1,0.2L199.2,41.8z"/>
	</g>
	<g>
		<path d="M46.4,45.4c-0.9,0-1.7-0.2-2.4-0.5c-0.7-0.3-1.3-0.8-1.7-1.4c-0.4-0.6-0.6-1.4-0.6-2.2l0-0.1l2.6-0.1
			c0,0.7,0.2,1.2,0.6,1.6c0.4,0.4,0.9,0.6,1.5,0.6c0.7,0,1.3-0.3,1.6-0.8s0.5-1.2,0.5-2c0-0.9-0.2-1.6-0.6-2.1
			c-0.4-0.5-0.9-0.8-1.7-0.8c-0.6,0-1.1,0.1-1.4,0.3c-0.3,0.2-0.5,0.5-0.7,0.9l-2.4-0.2l0.9-8.2H51v3.3h-1.8l-0.3-1H45l-0.4,3.6
			c0.2-0.1,0.4-0.3,0.6-0.4c0.2-0.1,0.5-0.2,0.8-0.3c0.3-0.1,0.6-0.1,0.9-0.1c0.9,0,1.7,0.2,2.4,0.6c0.7,0.4,1.2,1,1.5,1.7
			c0.3,0.7,0.5,1.6,0.5,2.7c0,1-0.2,1.8-0.6,2.5s-0.9,1.3-1.7,1.8S47.4,45.4,46.4,45.4z"/>
	</g>
	<g>
		<path d="M40.7,51.7v-0.4l0.3-0.1v-2.8l-0.4-0.1v-0.4h1v3.2l0.3,0.1v0.4H40.7z"/>
		<path d="M42.2,51.7v-0.4l0.3-0.1v-1.6l-0.4-0.1v-0.4h1v2.1l0.3,0.1v0.4H42.2z M42.5,48.6v-0.6h0.7v0.6H42.5z"/>
		<path d="M44.8,51.8c-0.2,0-0.4-0.1-0.5-0.2c-0.1-0.1-0.2-0.3-0.2-0.6v-1.4h-0.4v-0.5h0.4v-0.6h0.6v0.6h0.5v0.5h-0.5V51
			c0,0.1,0,0.2,0.1,0.2s0.1,0.1,0.2,0.1c0,0,0.1,0,0.1,0s0.1,0,0.1,0l0.1,0.5c-0.1,0-0.2,0-0.2,0.1S44.9,51.8,44.8,51.8z"/>
		<path d="M45.6,51.7v-0.4l0.3-0.1v-1.6l-0.4-0.1v-0.4h1l0,0.3l0,0.1c0.1-0.1,0.1-0.2,0.2-0.3c0.1-0.1,0.2-0.1,0.3-0.1
			c0,0,0.1,0,0.1,0c0,0,0.1,0,0.1,0l-0.1,0.6l-0.3,0c-0.1,0-0.2,0-0.3,0.1c-0.1,0-0.1,0.1-0.2,0.2v1.3l0.3,0.1v0.4H45.6z"/>
		<path d="M48.4,51.8c-0.3,0-0.5-0.1-0.6-0.2c-0.1-0.1-0.2-0.3-0.2-0.6c0-0.2,0-0.3,0.1-0.4c0.1-0.1,0.2-0.2,0.4-0.3
			c0.2-0.1,0.4-0.1,0.6-0.1h0.4V50c0-0.1,0-0.2-0.1-0.3c-0.1-0.1-0.2-0.1-0.3-0.1c-0.1,0-0.2,0-0.2,0c-0.1,0-0.1,0-0.2,0.1L48.2,50
			h-0.5l0-0.6c0.1-0.1,0.3-0.1,0.4-0.2c0.2,0,0.3-0.1,0.5-0.1c0.3,0,0.6,0.1,0.8,0.2c0.2,0.2,0.3,0.4,0.3,0.7v1.1c0,0,0,0.1,0,0.1
			c0,0,0,0.1,0,0.1l0.3,0v0.4h-0.8c0,0,0-0.1,0-0.2c0-0.1,0-0.1,0-0.2c-0.1,0.1-0.2,0.2-0.3,0.3C48.7,51.8,48.6,51.8,48.4,51.8z
			 M48.6,51.3c0.1,0,0.2,0,0.3-0.1c0.1-0.1,0.2-0.1,0.2-0.2v-0.4h-0.4c-0.2,0-0.3,0-0.4,0.1c-0.1,0.1-0.1,0.2-0.1,0.3
			c0,0.1,0,0.2,0.1,0.2C48.4,51.3,48.5,51.3,48.6,51.3z"/>
		<path d="M51.2,51.8c-0.3,0-0.5-0.1-0.6-0.2c-0.1-0.1-0.2-0.3-0.2-0.6c0-0.2,0-0.3,0.1-0.4c0.1-0.1,0.2-0.2,0.4-0.3
			c0.2-0.1,0.4-0.1,0.6-0.1h0.4V50c0-0.1,0-0.2-0.1-0.3c-0.1-0.1-0.2-0.1-0.3-0.1c-0.1,0-0.2,0-0.2,0c-0.1,0-0.1,0-0.2,0.1L50.9,50
			h-0.5l0-0.6c0.1-0.1,0.3-0.1,0.4-0.2c0.2,0,0.3-0.1,0.5-0.1c0.3,0,0.6,0.1,0.8,0.2c0.2,0.2,0.3,0.4,0.3,0.7v1.1c0,0,0,0.1,0,0.1
			c0,0,0,0.1,0,0.1l0.3,0v0.4h-0.8c0,0,0-0.1,0-0.2c0-0.1,0-0.1,0-0.2c-0.1,0.1-0.2,0.2-0.3,0.3C51.4,51.8,51.3,51.8,51.2,51.8z
			 M51.3,51.3c0.1,0,0.2,0,0.3-0.1c0.1-0.1,0.2-0.1,0.2-0.2v-0.4h-0.4c-0.2,0-0.3,0-0.4,0.1C51,50.8,51,50.9,51,51
			c0,0.1,0,0.2,0.1,0.2C51.1,51.3,51.2,51.3,51.3,51.3z"/>
	</g>
	<path class="st3" d="M253.8,26.7h2.5V32l4.4-5.3h3.1l-4.5,5.5l4.5,7.2h-3l-3.2-5.2l-1.3,1.5v3.7h-2.5V26.7z M266.1,35.1v-8.4h2.5
		v8.2c0,1.3,0.9,2.3,2.2,2.3c1.3,0,2.2-0.9,2.2-2.3v-8.2h2.5v8.4c0,2.7-2,4.5-4.7,4.5C268.1,39.6,266.1,37.8,266.1,35.1z
		 M253.8,42.7h5.6c2.4,0,3.6,1.7,3.6,3.5c0,1.2-0.5,2.1-1.3,2.5c1,0.5,1.6,1.7,1.6,2.9c0,2.4-1.8,3.8-4.1,3.8h-5.6V42.7z
		 M260.5,46.4c0-0.8-0.6-1.4-1.5-1.4h-2.7v2.8h2.7C259.9,47.7,260.5,47.2,260.5,46.4z M260.9,51.6c0-0.9-0.6-1.6-1.6-1.6h-3v3.2h3
		C260.3,53.2,260.9,52.5,260.9,51.6z M266.1,51.1v-8.4h2.5v8.2c0,1.3,0.9,2.3,2.2,2.3c1.3,0,2.2-0.9,2.2-2.3v-8.2h2.5v8.4
		c0,2.7-2,4.5-4.7,4.5C268.1,55.7,266.1,53.8,266.1,51.1z"/>
	<g>
		<path d="M320.2,38.2h0.6v1.3l1.1-1.3h0.7l-1.1,1.3l1.1,1.7h-0.7l-0.8-1.2l-0.3,0.4v0.9h-0.6V38.2z"/>
		<path d="M323.2,40.3v-2h0.6v2c0,0.3,0.2,0.5,0.5,0.5s0.5-0.2,0.5-0.5v-2h0.6v2c0,0.7-0.5,1.1-1.1,1.1
			C323.7,41.4,323.2,40.9,323.2,40.3z"/>
		<path d="M326.3,38.2h1.3c0.6,0,0.9,0.4,0.9,0.8c0,0.3-0.1,0.5-0.3,0.6c0.2,0.1,0.4,0.4,0.4,0.7c0,0.6-0.4,0.9-1,0.9h-1.3V38.2z
			 M327.9,39.1c0-0.2-0.1-0.3-0.4-0.3h-0.7v0.7h0.7C327.8,39.5,327.9,39.3,327.9,39.1z M328,40.4c0-0.2-0.1-0.4-0.4-0.4h-0.7v0.8
			h0.7C327.9,40.8,328,40.6,328,40.4z"/>
		<path d="M329.2,40.3v-2h0.6v2c0,0.3,0.2,0.5,0.5,0.5s0.5-0.2,0.5-0.5v-2h0.6v2c0,0.7-0.5,1.1-1.1,1.1
			C329.7,41.4,329.2,40.9,329.2,40.3z"/>
		<path d="M331.9,40.9c0-0.2,0.2-0.5,0.5-0.5c0.2,0,0.5,0.2,0.5,0.5s-0.2,0.5-0.5,0.5C332.1,41.4,331.9,41.2,331.9,40.9z"/>
		<path d="M333.5,38.2h1.8v0.6h-1.2v0.6h1.1v0.6h-1.1v1.2h-0.6V38.2z"/>
		<path d="M336,38.2h0.6v3.1H336V38.2z"/>
	</g>
</g>
</svg>
